# xmcd
#
# Track frame offsets: 
#        150
#        22081
#        40799
#        61426
#        79320
#        94707
#        109695
#        126571
#        142889
#        168562
#        190768
#
# Disc length: 2799 seconds
#
# Revision: 0
# Processed by: cddbd v1.5.2PL0 Copyright (c) Steve Scherf et al.
# Submitted via: ExactAudioCopy v1.3
#
DISCID=960aed0b
DTITLE=Sean Chambers - Welcome To My Blues
DYEAR=2018
DGENRE=Blues-Rock
TTITLE0=Welcome To My Blues
TTITLE1=Black Eyed Susie
TTITLE2=Cherry Red Wine
TTITLE3=Boxcar Willie
TTITLE4=Cry On Me
TTITLE5=One More Night To Ride
TTITLE6=Red Hot Mama
TTITLE7=You Keep Me Satisfied
TTITLE8=Keep Movin On
TTITLE9=All Night Long
TTITLE10=Riviera Blue
EXTD=
EXTT0=
EXTT1=
EXTT2=
EXTT3=
EXTT4=
EXTT5=
EXTT6=
EXTT7=
EXTT8=
EXTT9=
EXTT10=
PLAYORDER=
